<?xml version="1.0" encoding="iso-8859-1"?>
<!-- Generator: Adobe Illustrator 19.0.0, SVG Export Plug-In . SVG Version: 6.00 Build 0)  -->
<svg version="1.1" id="Capa_1" xmlns="http://www.w3.org/2000/svg" xmlns:xlink="http://www.w3.org/1999/xlink" x="0px" y="0px"
	 viewBox="0 0 490 490" style="enable-background:new 0 0 490 490;" xml:space="preserve">
<g>
	<path d="M396.881,322.366V298.01c16.427-2.426,29.262-9.027,38.493-19.803c9.217-10.762,13.838-24.005,13.838-39.727
		c0-14.069-3.673-25.604-11.005-34.59c-7.333-8.986-21.104-16.305-41.326-21.957V131.01c8.173,3.646,13.228,10.586,15.166,20.833
		l31.975-4.296c-2.182-13.026-7.238-23.421-15.167-31.202c-7.916-7.766-18.569-12.483-31.974-14.137v-12.89h-18.325v12.89
		c-14.49,1.478-26.105,7.062-34.82,16.74c-8.729,9.691-13.08,21.659-13.08,35.891c0,14.069,3.85,26.037,11.562,35.891
		c7.712,9.867,19.817,17.227,36.339,22.079v54.583c-4.554-2.25-8.675-5.896-12.389-10.938c-3.714-5.029-6.235-11.033-7.576-17.973
		l-32.991,3.646c2.521,17.105,8.336,30.347,17.444,39.727c9.094,9.379,20.927,14.991,35.512,16.807v23.706H396.881z M396.881,218.42
		c7.59,2.251,13.038,5.49,16.373,9.706c3.321,4.201,4.988,9.23,4.988,15.045c0,6.505-1.979,12.171-5.936,16.996
		c-3.971,4.826-9.108,7.835-15.424,9.054V218.42z M366.289,166.115c-2.697-3.958-4.038-8.228-4.038-12.836
		c0-5.042,1.477-9.636,4.419-13.811c2.954-4.161,6.912-7.116,11.887-8.85v45.067C373.079,173.258,368.987,170.059,366.289,166.115z"
		/>
	<path d="M67.023,306.338c-3.714-5.028-6.236-11.033-7.577-17.973l-32.99,3.647c2.521,17.105,8.336,30.348,17.445,39.727
		c9.094,9.379,20.927,14.991,35.511,16.806v23.706h18.325v-24.357c16.428-2.426,29.263-9.027,38.493-19.802
		c9.217-10.763,13.839-24.005,13.839-39.728c0-14.069-3.673-25.604-11.005-34.59c-7.334-8.986-21.104-16.305-41.327-21.958v-50.922
		c8.173,3.646,13.229,10.586,15.167,20.833l31.974-4.297c-2.182-13.025-7.237-23.421-15.166-31.201
		c-7.916-7.767-18.569-12.484-31.975-14.137v-12.89H79.411v12.89c-14.489,1.477-26.104,7.062-34.82,16.739
		c-8.729,9.691-13.079,21.66-13.079,35.891c0,14.069,3.849,26.037,11.561,35.891c7.712,9.867,19.816,17.227,36.338,22.079v54.582
		C74.856,315.027,70.736,311.38,67.023,306.338z M97.736,268.305c7.59,2.25,13.039,5.49,16.374,9.705
		c3.321,4.202,4.988,9.231,4.988,15.045c0,6.506-1.979,12.172-5.937,16.997c-3.971,4.825-9.107,7.835-15.424,9.054V268.305z
		 M67.144,216c-2.697-3.958-4.039-8.227-4.039-12.835c0-5.042,1.477-9.637,4.419-13.811c2.955-4.162,6.913-7.116,11.887-8.851
		v45.067C73.935,223.143,69.841,219.945,67.144,216z"/>
	<path d="M260.215,363.752V69.067l208.597-38.951L463.189,0L20.994,82.571l5.622,30.116l202.974-37.902v288.904
		C92.173,370.321,39.303,463.221,37.054,467.331L24.643,490h444.363l-17.226-24.194
		C448.908,461.771,382.504,370.985,260.215,363.752z M81.091,459.376c24.045-26.228,74.975-65.704,163.812-65.704
		c76.844,0,131.438,39.072,159.73,65.704H81.091z"/>
</g>
<g>
</g>
<g>
</g>
<g>
</g>
<g>
</g>
<g>
</g>
<g>
</g>
<g>
</g>
<g>
</g>
<g>
</g>
<g>
</g>
<g>
</g>
<g>
</g>
<g>
</g>
<g>
</g>
<g>
</g>
</svg>
